HIERARCHY
ROOT joint_0
{
	OFFSET 0.000000 0.000000 0.000000
	CHANNELS 6 Xposition Yposition Zposition Zrotation Yrotation Xrotation 
	JOINT joint_1
	{
		OFFSET 0.587158 0.057678 95.682007
		CHANNELS 3 Zrotation Yrotation Xrotation
		JOINT joint_2
		{
			OFFSET -7.116699 -0.219910 87.157959
			CHANNELS 3 Zrotation Yrotation Xrotation
			JOINT joint_3
			{
				OFFSET -5.892822 -0.290222 87.151001
				CHANNELS 3 Zrotation Yrotation Xrotation
				JOINT joint_4
				{
					OFFSET 5.544678 -0.099609 123.768066
					CHANNELS 3 Zrotation Yrotation Xrotation
					JOINT joint_5
					{
						OFFSET 41.981201 4.519775 84.257935
						CHANNELS 3 Zrotation Yrotation Xrotation
						End Site
						{
							OFFSET 0.000000 0.000000 0.000000
						}
					}
				}
				JOINT joint_6
				{
					OFFSET 3.940918 -26.976501 69.308105
					CHANNELS 3 Zrotation Yrotation Xrotation
					JOINT joint_7
					{
						OFFSET 4.776123 -152.592468 -16.842041
						CHANNELS 3 Zrotation Yrotation Xrotation
						JOINT joint_8
						{
							OFFSET 54.421875 -30.424072 -248.864014
							CHANNELS 3 Zrotation Yrotation Xrotation
							JOINT joint_9
							{
								OFFSET 42.120117 -33.387878 -236.524963
								CHANNELS 3 Zrotation Yrotation Xrotation
								End Site
								{
									OFFSET 0.000000 0.000000 0.000000
								}
							}
						}
					}
				}
				JOINT joint_10
				{
					OFFSET 2.312012 26.904114 69.425049
					CHANNELS 3 Zrotation Yrotation Xrotation
					JOINT joint_11
					{
						OFFSET 0.971436 152.197815 -20.626953
						CHANNELS 3 Zrotation Yrotation Xrotation
						JOINT joint_12
						{
							OFFSET 49.954102 28.991455 -249.970093
							CHANNELS 3 Zrotation Yrotation Xrotation
							JOINT joint_13
							{
								OFFSET 48.146973 19.598389 -236.919922
								CHANNELS 3 Zrotation Yrotation Xrotation
								End Site
								{
									OFFSET 0.000000 0.000000 0.000000
								}
							}
						}
					}
				}
			}
		}
	}
	JOINT joint_14
	{
		OFFSET 16.305664 -89.442932 -108.224976
		CHANNELS 3 Zrotation Yrotation Xrotation
		JOINT joint_15
		{
			OFFSET -22.282471 13.437134 -412.904968
			CHANNELS 3 Zrotation Yrotation Xrotation
			JOINT joint_16
			{
				OFFSET -45.426025 14.484802 -445.892029
				CHANNELS 3 Zrotation Yrotation Xrotation
				JOINT joint_17
				{
					OFFSET 173.389404 -9.944031 -76.473001
					CHANNELS 3 Zrotation Yrotation Xrotation
					End Site
					{
						OFFSET 0.000000 0.000000 0.000000
					}
				}
			}
		}
	}
	JOINT joint_18
	{
		OFFSET 13.392822 89.408875 -108.653992
		CHANNELS 3 Zrotation Yrotation Xrotation
		JOINT joint_19
		{
			OFFSET -29.032959 24.483521 -411.977966
			CHANNELS 3 Zrotation Yrotation Xrotation
			JOINT joint_20
			{
				OFFSET -30.530029 28.986328 -446.453018
				CHANNELS 3 Zrotation Yrotation Xrotation
				JOINT joint_21
				{
					OFFSET 170.330078 33.400757 -76.698997
					CHANNELS 3 Zrotation Yrotation Xrotation
					End Site
					{
						OFFSET 0.000000 0.000000 0.000000
					}
				}
			}
		}
	}
}
MOTION
Frames: 13
Frame Time: 0.016667
-2313.790283 838.731140 1063.671021 1.142900 1.844021 0.472203 0.200174 -3.961289 -0.706327 0.266021 0.640664 0.174883 0.240629 -0.716502 -0.101393 -0.747132 3.363034 1.126505 0.000000 0.000000 0.000000 -0.832012 2.304389 1.082518 -0.314627 2.197627 -0.509312 0.472098 -3.457257 -0.075126 0.000000 0.000000 0.000000 0.971128 1.928215 -0.093228 0.543275 1.858867 1.412000 -0.257869 -1.689811 -0.562985 0.000000 0.000000 0.000000 -1.415813 -4.783014 0.057628 -1.179111 3.239601 0.200894 -1.245837 -1.169238 -0.615443 0.000000 0.000000 0.000000 0.747236 -3.418533 -4.455883 0.596665 0.268228 0.660608 0.668734 0.823229 0.138669 0.000000 0.000000 0.000000 
-2314.003906 838.497131 1063.660034 1.184859 1.820034 0.474775 0.198306 -3.989089 -0.701933 0.264295 0.643359 0.174582 0.238904 -0.718330 -0.101704 -0.748711 3.377023 1.127829 0.000000 0.000000 0.000000 -0.840542 2.330405 1.094996 -0.321236 2.222485 -0.526950 0.479106 -3.498071 -0.067419 0.000000 0.000000 0.000000 0.979914 1.947977 -0.109766 0.552963 1.878366 1.444452 -0.268275 -1.733158 -0.595293 0.000000 0.000000 0.000000 -1.430805 -4.783574 0.068762 -1.191766 3.276086 0.199095 -1.260236 -1.206038 -0.623885 0.000000 0.000000 0.000000 0.730772 -3.412218 -4.439689 0.581836 0.273231 0.658573 0.655038 0.838332 0.129572 0.000000 0.000000 0.000000 
-2314.210938 838.241943 1063.657959 1.230513 1.801076 0.472625 0.196920 -4.028924 -0.692561 0.262526 0.648929 0.173222 0.237273 -0.723105 -0.100561 -0.751643 3.393415 1.131541 0.000000 0.000000 0.000000 -0.848284 2.362830 1.102497 -0.328011 2.254081 -0.542530 0.490197 -3.563226 -0.055640 0.000000 0.000000 0.000000 0.990017 1.974038 -0.122802 0.566730 1.904464 1.488095 -0.289384 -1.821435 -0.660910 0.000000 0.000000 0.000000 -1.447627 -4.772141 0.087092 -1.207377 3.278588 0.197404 -1.275675 -1.218383 -0.631392 0.000000 0.000000 0.000000 0.712653 -3.408081 -4.417951 0.565421 0.271862 0.657723 0.640382 0.854726 0.119792 0.000000 0.000000 0.000000 
-2314.438477 837.977905 1063.656982 1.272111 1.779462 0.472272 0.197675 -4.059423 -0.685049 0.263131 0.651812 0.171609 0.238077 -0.725839 -0.099225 -0.754468 3.402619 1.135786 0.000000 0.000000 0.000000 -0.866562 2.400044 1.101570 -0.336095 2.289591 -0.562269 0.518206 -3.708929 -0.011596 0.000000 0.000000 0.000000 1.017645 2.003991 -0.121848 0.582850 1.932451 1.531742 -0.327719 -1.998139 -0.772942 0.000000 0.000000 0.000000 -1.458974 -4.770588 0.101238 -1.216436 3.310720 0.196450 -1.287140 -1.285422 -0.640278 0.000000 0.000000 0.000000 0.695170 -3.407001 -4.393216 0.551169 0.281341 0.649913 0.625929 0.861317 0.112024 0.000000 0.000000 0.000000 
-2314.691650 837.703979 1063.654053 1.305469 1.755172 0.475933 0.203223 -4.080646 -0.682737 0.269227 0.654397 0.170730 0.244305 -0.726492 -0.098465 -0.756706 3.403467 1.139688 0.000000 0.000000 0.000000 -0.904202 2.442959 1.092957 -0.346106 2.328909 -0.589059 0.565244 -3.945303 0.068853 0.000000 0.000000 0.000000 1.070366 2.037632 -0.102433 0.601034 1.961078 1.574137 -0.387691 -2.278715 -0.945471 0.000000 0.000000 0.000000 -1.459789 -4.792800 0.106341 -1.212670 3.404835 0.197628 -1.290841 -1.457605 -0.651761 0.000000 0.000000 0.000000 0.679415 -3.411142 -4.364636 0.541037 0.306931 0.630169 0.612493 0.852565 0.107718 0.000000 0.000000 0.000000 
-2314.965332 837.421082 1063.651001 1.334368 1.728627 0.481341 0.211367 -4.093384 -0.682156 0.278145 0.654947 0.169495 0.253443 -0.725598 -0.097112 -0.758458 3.397453 1.143313 0.000000 0.000000 0.000000 -0.953350 2.490849 1.075706 -0.357541 2.372233 -0.620175 0.629061 -4.262358 0.181340 0.000000 0.000000 0.000000 1.139008 2.075060 -0.070131 0.621241 1.991626 1.617781 -0.465198 -2.645947 -1.164633 0.000000 0.000000 0.000000 -1.454760 -4.825374 0.107295 -1.201948 3.528533 0.199650 -1.290146 -1.684327 -0.664431 0.000000 0.000000 0.000000 0.664039 -3.419090 -4.333237 0.532856 0.344122 0.603990 0.599021 0.833692 0.105378 0.000000 0.000000 0.000000 
-2315.260986 837.151489 1063.654053 1.362155 1.697552 0.487926 0.218174 -4.093859 -0.678181 0.285409 0.654474 0.168292 0.260849 -0.723480 -0.096993 -0.758061 3.388405 1.143007 0.000000 0.000000 0.000000 -1.006662 2.540514 1.046477 -0.370094 2.417267 -0.654800 0.714973 -4.684420 0.337503 0.000000 0.000000 0.000000 1.208122 2.116868 -0.033106 0.642930 2.026688 1.658909 -0.553573 -3.096822 -1.398351 0.000000 0.000000 0.000000 -1.451243 -4.853720 0.106433 -1.193147 3.647281 0.201783 -1.290565 -1.889603 -0.676365 0.000000 0.000000 0.000000 0.649169 -3.430268 -4.304755 0.525847 0.394547 0.578846 0.585558 0.809969 0.103992 0.000000 0.000000 0.000000 
-2315.592285 836.908813 1063.662964 1.390433 1.656409 0.496411 0.221567 -4.069995 -0.668354 0.288567 0.652361 0.165981 0.264272 -0.720854 -0.096274 -0.752733 3.371553 1.133800 0.000000 0.000000 0.000000 -1.062755 2.593116 1.000794 -0.385292 2.465487 -0.697557 0.829878 -5.241092 0.554349 0.000000 0.000000 0.000000 1.275016 2.165498 0.007061 0.665846 2.069026 1.694185 -0.650800 -3.642511 -1.631019 0.000000 0.000000 0.000000 -1.451504 -4.871999 0.103263 -1.188868 3.756105 0.202798 -1.293911 -2.047875 -0.686894 0.000000 0.000000 0.000000 0.633819 -3.447222 -4.281417 0.519783 0.472614 0.555423 0.570721 0.777361 0.103728 0.000000 0.000000 0.000000 
-2315.945068 836.678406 1063.677002 1.417605 1.610506 0.505935 0.223274 -4.034153 -0.655997 0.289893 0.650100 0.165299 0.265675 -0.717326 -0.096648 -0.744433 3.352105 1.118982 0.000000 0.000000 0.000000 -1.121292 2.647392 0.944831 -0.402495 2.515444 -0.746555 0.966350 -5.903361 0.814050 0.000000 0.000000 0.000000 1.343301 2.218292 0.049281 0.690025 2.115437 1.729393 -0.759180 -4.270959 -1.877698 0.000000 0.000000 0.000000 -1.453046 -4.885742 0.098461 -1.186286 3.860066 0.203845 -1.298193 -2.185458 -0.696649 0.000000 0.000000 0.000000 0.618822 -3.467093 -4.260694 0.514744 0.563890 0.532971 0.555771 0.740072 0.104330 0.000000 0.000000 0.000000 
-2316.292236 836.433777 1063.702026 1.443714 1.572043 0.514713 0.226037 -4.009423 -0.644913 0.292260 0.647313 0.163850 0.268256 -0.714653 -0.095764 -0.737419 3.345191 1.105329 0.000000 0.000000 0.000000 -1.181090 2.697249 0.889318 -0.418833 2.560783 -0.793048 1.109670 -6.608817 1.083030 0.000000 0.000000 0.000000 1.399594 2.268124 0.086013 0.715327 2.160511 1.772146 -0.877848 -4.944370 -2.150185 0.000000 0.000000 0.000000 -1.455820 -4.897000 0.095713 -1.185743 3.942422 0.206294 -1.303098 -2.304504 -0.705619 0.000000 0.000000 0.000000 0.606114 -3.482582 -4.242305 0.509664 0.630784 0.517192 0.543866 0.717227 0.103468 0.000000 0.000000 0.000000 
-2316.625977 836.166260 1063.741943 1.467261 1.546783 0.521603 0.230877 -4.007225 -0.634673 0.296645 0.645227 0.161659 0.272923 -0.714852 -0.094333 -0.732961 3.360191 1.094309 0.000000 0.000000 0.000000 -1.242945 2.745363 0.835491 -0.433425 2.604095 -0.832592 1.259314 -7.363227 1.354809 0.000000 0.000000 0.000000 1.444530 2.313906 0.112073 0.742289 2.203073 1.827046 -1.007243 -5.658441 -2.452015 0.000000 0.000000 0.000000 -1.459801 -4.904422 0.098199 -1.187542 3.988894 0.208993 -1.308409 -2.399145 -0.713377 0.000000 0.000000 0.000000 0.598789 -3.487349 -4.229670 0.505045 0.648996 0.515913 0.538646 0.723547 0.099893 0.000000 0.000000 0.000000 
-2316.953125 835.885681 1063.792969 1.489599 1.529031 0.527439 0.236462 -4.016821 -0.624285 0.301627 0.642664 0.158191 0.278315 -0.715284 -0.092319 -0.729415 3.388464 1.083618 0.000000 0.000000 0.000000 -1.303908 2.788977 0.784656 -0.447856 2.642873 -0.871834 1.415359 -8.161820 1.634649 0.000000 0.000000 0.000000 1.478391 2.356590 0.130803 0.770490 2.243994 1.891328 -1.146668 -6.417458 -2.777883 0.000000 0.000000 0.000000 -1.464858 -4.909515 0.103041 -1.191199 4.013953 0.213083 -1.314202 -2.475975 -0.720330 0.000000 0.000000 0.000000 0.593826 -3.487514 -4.219122 0.500434 0.642581 0.521498 0.536520 0.744166 0.094906 0.000000 0.000000 0.000000 
-2317.264893 835.592712 1063.843018 1.514180 1.510762 0.533286 0.240058 -4.024853 -0.619181 0.305259 0.640146 0.156653 0.282142 -0.715807 -0.091609 -0.727346 3.413875 1.076246 0.000000 0.000000 0.000000 -1.356087 2.812607 0.745424 -0.461531 2.662062 -0.914230 1.564110 -8.923803 1.906516 0.000000 0.000000 0.000000 1.498748 2.392024 0.150393 0.798541 2.279342 1.961703 -1.294080 -7.195533 -3.130836 0.000000 0.000000 0.000000 -1.470157 -4.914397 0.105640 -1.195310 4.042350 0.221891 -1.320148 -2.556210 -0.727548 0.000000 0.000000 0.000000 0.585324 -3.489968 -4.199143 0.494531 0.646070 0.515425 0.530569 0.749366 0.091223 0.000000 0.000000 0.000000 
